<svg xmlns="http://www.w3.org/2000/svg" xmlns:xlink="http://www.w3.org/1999/xlink" width="300" zoomAndPan="magnify" viewBox="0 0 224.87999 74.999997" height="100" preserveAspectRatio="xMidYMid meet" version="1.0"><defs><g/><clipPath id="fc877748b5"><path d="M 38.027344 6.0625 L 101 6.0625 L 101 69.082031 L 38.027344 69.082031 Z M 38.027344 6.0625 " clip-rule="nonzero"/></clipPath></defs><g clip-path="url(#fc877748b5)"><path fill="#000000" d="M 71.679688 43.574219 L 71.679688 42.097656 L 89.050781 42.097656 C 89.253906 42.101562 89.449219 42.140625 89.636719 42.21875 C 89.824219 42.296875 89.992188 42.40625 90.136719 42.550781 C 90.277344 42.691406 90.390625 42.859375 90.46875 43.046875 C 90.546875 43.234375 90.585938 43.429688 90.585938 43.632812 L 90.585938 52.945312 C 90.917969 53.007812 91.234375 53.109375 91.539062 53.246094 C 91.847656 53.386719 92.128906 53.5625 92.394531 53.773438 C 92.65625 53.984375 92.890625 54.222656 93.09375 54.492188 C 93.296875 54.757812 93.460938 55.046875 93.59375 55.355469 C 93.726562 55.667969 93.816406 55.988281 93.871094 56.320312 C 93.921875 56.652344 93.933594 56.984375 93.902344 57.320312 C 93.871094 57.65625 93.800781 57.980469 93.691406 58.300781 C 93.578125 58.617188 93.429688 58.914062 93.242188 59.195312 C 93.058594 59.476562 92.839844 59.730469 92.59375 59.957031 C 92.34375 60.183594 92.070312 60.378906 91.777344 60.535156 C 91.480469 60.695312 91.167969 60.816406 90.84375 60.898438 C 90.515625 60.980469 90.183594 61.023438 89.847656 61.023438 C 89.511719 61.023438 89.179688 60.980469 88.855469 60.898438 C 88.527344 60.816406 88.21875 60.695312 87.921875 60.535156 C 87.625 60.378906 87.351562 60.183594 87.101562 59.957031 C 86.855469 59.730469 86.636719 59.476562 86.453125 59.195312 C 86.265625 58.914062 86.117188 58.617188 86.007812 58.300781 C 85.894531 57.980469 85.824219 57.65625 85.792969 57.320312 C 85.761719 56.984375 85.773438 56.652344 85.828125 56.320312 C 85.878906 55.988281 85.96875 55.667969 86.101562 55.355469 C 86.234375 55.046875 86.402344 54.757812 86.605469 54.492188 C 86.808594 54.222656 87.039062 53.984375 87.304688 53.773438 C 87.566406 53.5625 87.851562 53.386719 88.15625 53.246094 C 88.460938 53.109375 88.78125 53.007812 89.109375 52.945312 L 89.109375 43.632812 C 89.109375 43.59375 89.089844 43.574219 89.050781 43.574219 Z M 71.679688 48.835938 L 80.023438 48.835938 C 80.0625 48.839844 80.082031 48.859375 80.082031 48.898438 L 80.082031 58.210938 C 79.75 58.273438 79.433594 58.371094 79.128906 58.511719 C 78.820312 58.652344 78.535156 58.828125 78.273438 59.039062 C 78.011719 59.246094 77.777344 59.488281 77.574219 59.753906 C 77.371094 60.023438 77.203125 60.3125 77.074219 60.621094 C 76.941406 60.929688 76.851562 61.25 76.796875 61.585938 C 76.746094 61.917969 76.734375 62.25 76.765625 62.585938 C 76.796875 62.921875 76.867188 63.246094 76.976562 63.5625 C 77.089844 63.882812 77.238281 64.179688 77.421875 64.460938 C 77.609375 64.742188 77.828125 64.996094 78.074219 65.222656 C 78.324219 65.449219 78.59375 65.640625 78.890625 65.800781 C 79.1875 65.960938 79.5 66.082031 79.824219 66.164062 C 80.152344 66.246094 80.484375 66.285156 80.820312 66.285156 C 81.15625 66.285156 81.488281 66.246094 81.8125 66.164062 C 82.140625 66.082031 82.449219 65.960938 82.746094 65.800781 C 83.042969 65.640625 83.316406 65.449219 83.5625 65.222656 C 83.8125 64.996094 84.03125 64.742188 84.214844 64.460938 C 84.402344 64.179688 84.550781 63.882812 84.660156 63.5625 C 84.773438 63.246094 84.84375 62.921875 84.875 62.585938 C 84.902344 62.25 84.894531 61.917969 84.839844 61.585938 C 84.789062 61.25 84.699219 60.929688 84.566406 60.621094 C 84.433594 60.3125 84.265625 60.023438 84.0625 59.753906 C 83.859375 59.488281 83.628906 59.246094 83.363281 59.039062 C 83.101562 58.828125 82.816406 58.652344 82.511719 58.511719 C 82.207031 58.371094 81.886719 58.273438 81.554688 58.210938 L 81.554688 48.898438 C 81.554688 48.695312 81.515625 48.5 81.4375 48.3125 C 81.359375 48.121094 81.25 47.957031 81.105469 47.8125 C 80.960938 47.671875 80.796875 47.558594 80.609375 47.480469 C 80.421875 47.402344 80.226562 47.363281 80.023438 47.363281 L 71.679688 47.363281 Z M 71.679688 27.78125 L 71.679688 26.304688 L 80.023438 26.304688 C 80.0625 26.304688 80.082031 26.285156 80.082031 26.246094 L 80.082031 16.933594 C 79.75 16.871094 79.433594 16.769531 79.128906 16.632812 C 78.820312 16.492188 78.535156 16.316406 78.273438 16.105469 C 78.011719 15.894531 77.777344 15.65625 77.574219 15.390625 C 77.371094 15.121094 77.203125 14.832031 77.074219 14.523438 C 76.941406 14.214844 76.851562 13.890625 76.796875 13.558594 C 76.746094 13.226562 76.734375 12.894531 76.765625 12.558594 C 76.796875 12.222656 76.867188 11.898438 76.976562 11.578125 C 77.089844 11.261719 77.238281 10.964844 77.421875 10.683594 C 77.609375 10.402344 77.828125 10.148438 78.074219 9.921875 C 78.324219 9.695312 78.59375 9.503906 78.890625 9.34375 C 79.1875 9.183594 79.5 9.0625 79.824219 8.980469 C 80.152344 8.898438 80.484375 8.859375 80.820312 8.859375 C 81.15625 8.859375 81.488281 8.898438 81.8125 8.980469 C 82.140625 9.0625 82.449219 9.183594 82.746094 9.34375 C 83.042969 9.503906 83.316406 9.695312 83.5625 9.921875 C 83.8125 10.148438 84.03125 10.402344 84.214844 10.683594 C 84.402344 10.964844 84.550781 11.261719 84.660156 11.578125 C 84.773438 11.898438 84.84375 12.222656 84.875 12.558594 C 84.902344 12.894531 84.894531 13.226562 84.839844 13.558594 C 84.789062 13.890625 84.699219 14.214844 84.566406 14.523438 C 84.433594 14.832031 84.265625 15.121094 84.0625 15.390625 C 83.859375 15.65625 83.628906 15.894531 83.363281 16.105469 C 83.101562 16.316406 82.816406 16.492188 82.511719 16.632812 C 82.207031 16.769531 81.886719 16.871094 81.554688 16.933594 L 81.554688 26.246094 C 81.554688 26.449219 81.515625 26.644531 81.4375 26.832031 C 81.359375 27.019531 81.25 27.1875 81.105469 27.332031 C 80.964844 27.472656 80.796875 27.585938 80.609375 27.664062 C 80.421875 27.742188 80.226562 27.78125 80.023438 27.78125 Z M 71.679688 33.042969 L 89.050781 33.042969 C 89.253906 33.042969 89.449219 33.003906 89.636719 32.925781 C 89.824219 32.847656 89.992188 32.738281 90.136719 32.59375 C 90.277344 32.449219 90.390625 32.285156 90.46875 32.097656 C 90.546875 31.910156 90.585938 31.714844 90.585938 31.511719 L 90.585938 22.195312 C 90.917969 22.136719 91.234375 22.035156 91.539062 21.894531 C 91.847656 21.753906 92.128906 21.582031 92.394531 21.371094 C 92.65625 21.160156 92.890625 20.921875 93.09375 20.652344 C 93.296875 20.382812 93.460938 20.097656 93.59375 19.785156 C 93.726562 19.476562 93.816406 19.15625 93.871094 18.824219 C 93.921875 18.492188 93.933594 18.15625 93.902344 17.824219 C 93.871094 17.488281 93.800781 17.160156 93.691406 16.84375 C 93.578125 16.527344 93.429688 16.226562 93.242188 15.945312 C 93.058594 15.667969 92.839844 15.414062 92.59375 15.1875 C 92.34375 14.957031 92.070312 14.765625 91.777344 14.605469 C 91.480469 14.449219 91.167969 14.328125 90.84375 14.246094 C 90.515625 14.164062 90.183594 14.121094 89.847656 14.121094 C 89.511719 14.121094 89.179688 14.164062 88.855469 14.246094 C 88.527344 14.328125 88.21875 14.449219 87.921875 14.605469 C 87.625 14.765625 87.351562 14.957031 87.101562 15.1875 C 86.855469 15.414062 86.636719 15.667969 86.453125 15.945312 C 86.265625 16.226562 86.117188 16.527344 86.007812 16.84375 C 85.894531 17.160156 85.824219 17.488281 85.792969 17.824219 C 85.761719 18.15625 85.773438 18.492188 85.828125 18.824219 C 85.878906 19.15625 85.96875 19.476562 86.101562 19.785156 C 86.234375 20.097656 86.402344 20.382812 86.605469 20.652344 C 86.808594 20.921875 87.039062 21.160156 87.304688 21.371094 C 87.566406 21.582031 87.851562 21.753906 88.15625 21.894531 C 88.460938 22.035156 88.78125 22.136719 89.109375 22.195312 L 89.109375 31.511719 C 89.109375 31.550781 89.089844 31.570312 89.050781 31.570312 L 71.679688 31.570312 Z M 70.203125 36.835938 L 70.203125 49.210938 C 70.203125 49.414062 70.132812 49.589844 69.988281 49.734375 C 69.84375 49.875 69.671875 49.949219 69.46875 49.949219 C 68.65625 49.949219 67.851562 49.871094 67.054688 49.710938 C 66.253906 49.550781 65.480469 49.316406 64.730469 49.007812 C 63.980469 48.695312 63.265625 48.3125 62.589844 47.863281 C 61.914062 47.410156 61.289062 46.898438 60.714844 46.324219 C 60.140625 45.75 59.628906 45.125 59.175781 44.449219 C 58.726562 43.773438 58.34375 43.058594 58.03125 42.308594 C 57.722656 41.558594 57.488281 40.785156 57.328125 39.988281 C 57.167969 39.1875 57.089844 38.382812 57.089844 37.570312 C 57.089844 36.757812 57.167969 35.953125 57.328125 35.15625 C 57.488281 34.359375 57.722656 33.585938 58.03125 32.835938 C 58.34375 32.085938 58.726562 31.371094 59.175781 30.695312 C 59.628906 30.019531 60.140625 29.394531 60.714844 28.820312 C 61.289062 28.246094 61.914062 27.730469 62.589844 27.28125 C 63.265625 26.828125 63.980469 26.449219 64.730469 26.136719 C 65.480469 25.824219 66.253906 25.589844 67.054688 25.433594 C 67.851562 25.273438 68.65625 25.195312 69.46875 25.195312 C 69.671875 25.195312 69.84375 25.265625 69.988281 25.410156 C 70.132812 25.554688 70.203125 25.730469 70.203125 25.933594 Z M 96.835938 33.5 C 96.359375 33.5 95.898438 33.582031 95.449219 33.746094 C 95.003906 33.90625 94.597656 34.140625 94.230469 34.445312 C 93.867188 34.75 93.5625 35.105469 93.324219 35.515625 C 93.082031 35.929688 92.917969 36.367188 92.832031 36.835938 L 71.679688 36.835938 L 71.679688 38.308594 L 92.832031 38.308594 C 92.925781 38.820312 93.109375 39.292969 93.386719 39.734375 C 93.660156 40.171875 94.007812 40.546875 94.425781 40.851562 C 94.84375 41.160156 95.304688 41.378906 95.804688 41.507812 C 96.308594 41.640625 96.816406 41.675781 97.328125 41.613281 C 97.84375 41.550781 98.328125 41.394531 98.785156 41.144531 C 99.238281 40.898438 99.632812 40.574219 99.964844 40.175781 C 100.296875 39.777344 100.542969 39.332031 100.703125 38.839844 C 100.867188 38.347656 100.929688 37.839844 100.898438 37.324219 C 100.867188 36.804688 100.742188 36.3125 100.523438 35.84375 C 100.300781 35.375 100.003906 34.960938 99.625 34.605469 C 99.25 34.25 98.816406 33.976562 98.335938 33.785156 C 97.855469 33.59375 97.355469 33.5 96.835938 33.5 Z M 39.753906 44.097656 L 44.648438 44.699219 C 45.1875 46.578125 45.929688 48.371094 46.878906 50.082031 L 43.839844 53.96875 C 43.691406 54.15625 43.582031 54.367188 43.511719 54.59375 C 43.441406 54.824219 43.414062 55.058594 43.429688 55.296875 C 43.441406 55.535156 43.5 55.765625 43.597656 55.984375 C 43.695312 56.203125 43.832031 56.398438 44 56.566406 L 50.472656 63.039062 C 50.640625 63.207031 50.835938 63.34375 51.054688 63.441406 C 51.273438 63.539062 51.503906 63.597656 51.742188 63.609375 C 51.980469 63.625 52.214844 63.597656 52.445312 63.527344 C 52.671875 63.457031 52.882812 63.347656 53.070312 63.199219 L 56.960938 60.160156 C 58.667969 61.109375 60.464844 61.851562 62.339844 62.386719 L 62.945312 67.285156 C 62.972656 67.523438 63.042969 67.75 63.15625 67.960938 C 63.265625 68.171875 63.410156 68.359375 63.589844 68.515625 C 63.769531 68.675781 63.972656 68.796875 64.195312 68.882812 C 64.417969 68.96875 64.652344 69.011719 64.890625 69.011719 L 69.46875 69.011719 C 69.671875 69.011719 69.84375 68.941406 69.988281 68.796875 C 70.132812 68.652344 70.203125 68.480469 70.203125 68.277344 L 70.203125 52.40625 C 70.203125 52.199219 70.132812 52.027344 69.988281 51.882812 C 69.84375 51.738281 69.671875 51.667969 69.46875 51.667969 C 68.542969 51.667969 67.625 51.578125 66.71875 51.398438 C 65.808594 51.214844 64.929688 50.949219 64.074219 50.59375 C 63.21875 50.242188 62.40625 49.804688 61.636719 49.292969 C 60.867188 48.777344 60.15625 48.195312 59.5 47.539062 C 58.847656 46.882812 58.261719 46.171875 57.746094 45.402344 C 57.234375 44.632812 56.800781 43.820312 56.445312 42.964844 C 56.089844 42.109375 55.824219 41.230469 55.644531 40.320312 C 55.460938 39.414062 55.371094 38.496094 55.371094 37.570312 C 55.371094 36.644531 55.460938 35.730469 55.644531 34.820312 C 55.824219 33.914062 56.089844 33.03125 56.445312 32.175781 C 56.800781 31.324219 57.234375 30.511719 57.746094 29.742188 C 58.261719 28.972656 58.847656 28.257812 59.5 27.605469 C 60.15625 26.949219 60.867188 26.367188 61.636719 25.851562 C 62.40625 25.335938 63.21875 24.902344 64.074219 24.550781 C 64.929688 24.195312 65.808594 23.925781 66.71875 23.746094 C 67.625 23.566406 68.542969 23.476562 69.46875 23.476562 C 69.671875 23.476562 69.84375 23.40625 69.988281 23.261719 C 70.132812 23.117188 70.203125 22.941406 70.203125 22.738281 L 70.203125 6.867188 C 70.203125 6.664062 70.132812 6.492188 69.988281 6.347656 C 69.84375 6.203125 69.671875 6.132812 69.46875 6.132812 L 64.890625 6.132812 C 64.652344 6.132812 64.417969 6.175781 64.195312 6.257812 C 63.96875 6.34375 63.769531 6.464844 63.589844 6.625 C 63.410156 6.785156 63.265625 6.96875 63.152344 7.183594 C 63.039062 7.394531 62.96875 7.621094 62.941406 7.859375 L 62.339844 12.753906 C 60.464844 13.292969 58.667969 14.035156 56.960938 14.984375 L 53.070312 11.945312 C 52.882812 11.796875 52.671875 11.6875 52.445312 11.617188 C 52.214844 11.546875 51.980469 11.519531 51.742188 11.535156 C 51.503906 11.546875 51.273438 11.605469 51.054688 11.703125 C 50.835938 11.800781 50.640625 11.933594 50.472656 12.105469 L 44 18.578125 C 43.832031 18.746094 43.695312 18.941406 43.597656 19.160156 C 43.5 19.378906 43.441406 19.605469 43.429688 19.847656 C 43.414062 20.085938 43.441406 20.320312 43.511719 20.546875 C 43.582031 20.777344 43.691406 20.988281 43.839844 21.175781 L 46.878906 25.066406 C 45.929688 26.773438 45.1875 28.566406 44.648438 30.445312 L 39.753906 31.046875 C 39.515625 31.078125 39.289062 31.148438 39.078125 31.257812 C 38.867188 31.371094 38.679688 31.515625 38.523438 31.695312 C 38.363281 31.875 38.242188 32.074219 38.15625 32.300781 C 38.070312 32.523438 38.027344 32.753906 38.027344 32.996094 L 38.027344 42.148438 C 38.027344 42.386719 38.070312 42.621094 38.15625 42.84375 C 38.238281 43.066406 38.363281 43.269531 38.519531 43.449219 C 38.679688 43.628906 38.867188 43.777344 39.078125 43.886719 C 39.289062 44 39.515625 44.070312 39.753906 44.097656 Z M 39.753906 44.097656 " fill-opacity="1" fill-rule="evenodd"/></g><g fill="#000000" fill-opacity="1"><g transform="translate(103.170072, 59.997568)"><g><path d="M 21.3125 -8.5 C 21.3125 -7.164062 21.070312 -5.9375 20.59375 -4.8125 C 20.113281 -3.6875 19.445312 -2.707031 18.59375 -1.875 C 17.738281 -1.039062 16.71875 -0.382812 15.53125 0.09375 C 14.34375 0.570312 13.039062 0.8125 11.625 0.8125 C 10.25 0.8125 8.957031 0.570312 7.75 0.09375 C 6.539062 -0.382812 5.488281 -1.039062 4.59375 -1.875 C 3.695312 -2.707031 3 -3.6875 2.5 -4.8125 C 2 -5.9375 1.75 -7.164062 1.75 -8.5 L 1.75 -41.625 L 9.8125 -41.625 L 9.8125 -8.3125 C 9.8125 -7.726562 9.988281 -7.28125 10.34375 -6.96875 C 10.695312 -6.65625 11.125 -6.5 11.625 -6.5 C 12.207031 -6.5 12.675781 -6.65625 13.03125 -6.96875 C 13.382812 -7.28125 13.5625 -7.726562 13.5625 -8.3125 L 13.5625 -41.625 L 21.3125 -41.625 Z M 21.3125 -8.5 "/></g></g></g><g fill="#000000" fill-opacity="1"><g transform="translate(124.293541, 59.997568)"><g><path d="M 21.125 -8.8125 C 21.125 -7.394531 20.914062 -6.09375 20.5 -4.90625 C 20.082031 -3.71875 19.46875 -2.707031 18.65625 -1.875 C 17.84375 -1.039062 16.863281 -0.382812 15.71875 0.09375 C 14.570312 0.570312 13.289062 0.8125 11.875 0.8125 C 10.414062 0.8125 9.050781 0.570312 7.78125 0.09375 C 6.507812 -0.382812 5.40625 -1.0625 4.46875 -1.9375 C 3.53125 -2.8125 2.789062 -3.863281 2.25 -5.09375 C 1.707031 -6.320312 1.4375 -7.6875 1.4375 -9.1875 L 1.4375 -32.4375 C 1.4375 -33.9375 1.707031 -35.300781 2.25 -36.53125 C 2.789062 -37.757812 3.53125 -38.8125 4.46875 -39.6875 C 5.40625 -40.5625 6.507812 -41.238281 7.78125 -41.71875 C 9.050781 -42.195312 10.414062 -42.4375 11.875 -42.4375 C 13.289062 -42.4375 14.570312 -42.195312 15.71875 -41.71875 C 16.863281 -41.238281 17.84375 -40.582031 18.65625 -39.75 C 19.46875 -38.914062 20.082031 -37.90625 20.5 -36.71875 C 20.914062 -35.53125 21.125 -34.226562 21.125 -32.8125 L 21.125 -26.5 L 14.125 -26.5 L 14.125 -32.9375 C 14.125 -33.5625 13.945312 -34.082031 13.59375 -34.5 C 13.238281 -34.914062 12.664062 -35.125 11.875 -35.125 C 11.125 -35.125 10.5625 -34.914062 10.1875 -34.5 C 9.8125 -34.082031 9.625 -33.5625 9.625 -32.9375 L 9.625 -8.6875 C 9.625 -8.0625 9.8125 -7.539062 10.1875 -7.125 C 10.5625 -6.707031 11.125 -6.5 11.875 -6.5 C 12.664062 -6.5 13.238281 -6.707031 13.59375 -7.125 C 13.945312 -7.539062 14.125 -8.0625 14.125 -8.6875 L 14.125 -15.1875 L 21.125 -15.1875 Z M 21.125 -8.8125 "/></g></g></g><g fill="#000000" fill-opacity="1"><g transform="translate(144.667072, 59.997568)"><g><path d="M 14.4375 0 L 14.4375 -16.5625 L 9.875 -16.5625 L 9.875 0 L 1.8125 0 L 1.8125 -41.625 L 9.875 -41.625 L 9.875 -23.9375 L 14.4375 -23.9375 L 14.4375 -41.625 L 22.4375 -41.625 L 22.4375 0 Z M 14.4375 0 "/></g></g></g><g fill="#000000" fill-opacity="1"><g transform="translate(167.040454, 59.997568)"><g><path d="M 1.8125 0 L 1.8125 -41.625 L 18.75 -41.625 L 18.75 -34.5625 L 9.8125 -34.5625 L 9.8125 -24.625 L 15.6875 -24.625 L 15.6875 -18.125 L 9.8125 -18.125 L 9.8125 -7.3125 L 18.75 -7.3125 L 18.75 0 Z M 1.8125 0 "/></g></g></g></svg>