<svg xmlns="http://www.w3.org/2000/svg" xmlns:xlink="http://www.w3.org/1999/xlink" width="300" zoomAndPan="magnify" viewBox="0 0 224.87999 74.999997" height="100" preserveAspectRatio="xMidYMid meet" version="1.0"><defs><g/><clipPath id="0a02c49cba"><path d="M 38.027344 6.0625 L 101 6.0625 L 101 69 L 38.027344 69 Z M 38.027344 6.0625 " clip-rule="nonzero"/></clipPath></defs><g clip-path="url(#0a02c49cba)"><path fill="#ffffff" d="M 71.601562 43.484375 L 71.601562 42.015625 L 88.933594 42.015625 C 89.136719 42.015625 89.332031 42.054688 89.519531 42.132812 C 89.707031 42.210938 89.871094 42.320312 90.015625 42.464844 C 90.15625 42.609375 90.269531 42.773438 90.347656 42.960938 C 90.425781 43.148438 90.464844 43.34375 90.464844 43.546875 L 90.464844 52.839844 C 90.792969 52.898438 91.113281 53 91.417969 53.136719 C 91.722656 53.277344 92.003906 53.453125 92.265625 53.664062 C 92.53125 53.871094 92.761719 54.109375 92.964844 54.378906 C 93.167969 54.644531 93.335938 54.933594 93.464844 55.242188 C 93.597656 55.550781 93.6875 55.871094 93.742188 56.203125 C 93.792969 56.535156 93.804688 56.867188 93.773438 57.203125 C 93.742188 57.535156 93.671875 57.863281 93.5625 58.179688 C 93.449219 58.496094 93.300781 58.792969 93.117188 59.074219 C 92.929688 59.351562 92.714844 59.605469 92.464844 59.832031 C 92.21875 60.058594 91.945312 60.25 91.652344 60.410156 C 91.355469 60.570312 91.046875 60.691406 90.71875 60.773438 C 90.394531 60.851562 90.0625 60.894531 89.726562 60.894531 C 89.394531 60.894531 89.0625 60.851562 88.738281 60.773438 C 88.410156 60.691406 88.101562 60.570312 87.804688 60.410156 C 87.507812 60.25 87.238281 60.058594 86.988281 59.832031 C 86.742188 59.605469 86.527344 59.351562 86.339844 59.074219 C 86.15625 58.792969 86.007812 58.496094 85.894531 58.179688 C 85.785156 57.863281 85.714844 57.535156 85.683594 57.203125 C 85.652344 56.867188 85.664062 56.535156 85.714844 56.203125 C 85.769531 55.871094 85.859375 55.550781 85.992188 55.242188 C 86.121094 54.933594 86.289062 54.644531 86.492188 54.378906 C 86.695312 54.109375 86.925781 53.871094 87.1875 53.664062 C 87.449219 53.453125 87.734375 53.277344 88.039062 53.136719 C 88.34375 53 88.664062 52.898438 88.992188 52.839844 L 88.992188 43.546875 C 88.992188 43.507812 88.972656 43.488281 88.933594 43.484375 Z M 71.601562 48.738281 L 79.925781 48.738281 C 79.964844 48.738281 79.984375 48.757812 79.984375 48.796875 L 79.984375 58.089844 C 79.65625 58.152344 79.335938 58.25 79.03125 58.390625 C 78.726562 58.53125 78.441406 58.703125 78.179688 58.914062 C 77.917969 59.125 77.6875 59.363281 77.484375 59.628906 C 77.28125 59.898438 77.113281 60.1875 76.984375 60.496094 C 76.851562 60.804688 76.757812 61.125 76.707031 61.457031 C 76.65625 61.785156 76.644531 62.121094 76.675781 62.453125 C 76.707031 62.789062 76.777344 63.113281 76.886719 63.429688 C 77 63.746094 77.148438 64.046875 77.332031 64.324219 C 77.519531 64.605469 77.734375 64.859375 77.980469 65.085938 C 78.230469 65.3125 78.5 65.503906 78.796875 65.664062 C 79.09375 65.820312 79.402344 65.941406 79.730469 66.023438 C 80.054688 66.105469 80.382812 66.148438 80.71875 66.148438 C 81.054688 66.148438 81.386719 66.105469 81.710938 66.023438 C 82.039062 65.941406 82.347656 65.820312 82.644531 65.664062 C 82.9375 65.503906 83.210938 65.3125 83.457031 65.085938 C 83.707031 64.859375 83.921875 64.605469 84.109375 64.324219 C 84.292969 64.046875 84.441406 63.746094 84.550781 63.429688 C 84.664062 63.113281 84.734375 62.789062 84.765625 62.453125 C 84.796875 62.121094 84.785156 61.785156 84.734375 61.457031 C 84.679688 61.125 84.589844 60.804688 84.457031 60.496094 C 84.328125 60.1875 84.160156 59.898438 83.957031 59.628906 C 83.753906 59.363281 83.519531 59.125 83.257812 58.914062 C 82.996094 58.703125 82.714844 58.53125 82.410156 58.390625 C 82.101562 58.25 81.785156 58.152344 81.457031 58.089844 L 81.457031 48.796875 C 81.457031 48.59375 81.417969 48.398438 81.339844 48.210938 C 81.261719 48.027344 81.148438 47.859375 81.007812 47.71875 C 80.863281 47.574219 80.699219 47.464844 80.511719 47.386719 C 80.324219 47.308594 80.128906 47.269531 79.925781 47.269531 L 71.601562 47.269531 Z M 71.601562 27.730469 L 71.601562 26.257812 L 79.925781 26.257812 C 79.964844 26.257812 79.984375 26.238281 79.984375 26.199219 L 79.984375 16.90625 C 79.65625 16.847656 79.335938 16.746094 79.03125 16.605469 C 78.726562 16.46875 78.441406 16.292969 78.179688 16.082031 C 77.917969 15.875 77.6875 15.632812 77.484375 15.367188 C 77.28125 15.101562 77.113281 14.8125 76.984375 14.503906 C 76.851562 14.195312 76.757812 13.875 76.707031 13.542969 C 76.65625 13.210938 76.644531 12.878906 76.675781 12.542969 C 76.707031 12.210938 76.777344 11.882812 76.886719 11.566406 C 77 11.25 77.148438 10.953125 77.332031 10.671875 C 77.519531 10.390625 77.734375 10.140625 77.980469 9.914062 C 78.230469 9.6875 78.5 9.496094 78.796875 9.335938 C 79.09375 9.175781 79.402344 9.054688 79.730469 8.972656 C 80.054688 8.890625 80.382812 8.851562 80.71875 8.851562 C 81.054688 8.851562 81.386719 8.890625 81.710938 8.972656 C 82.039062 9.054688 82.347656 9.175781 82.644531 9.335938 C 82.9375 9.496094 83.210938 9.6875 83.457031 9.914062 C 83.707031 10.140625 83.921875 10.390625 84.109375 10.671875 C 84.292969 10.953125 84.441406 11.25 84.550781 11.566406 C 84.664062 11.882812 84.734375 12.210938 84.765625 12.542969 C 84.796875 12.878906 84.785156 13.210938 84.734375 13.542969 C 84.679688 13.875 84.589844 14.195312 84.457031 14.503906 C 84.328125 14.8125 84.160156 15.101562 83.957031 15.367188 C 83.753906 15.632812 83.519531 15.875 83.257812 16.082031 C 82.996094 16.292969 82.714844 16.46875 82.410156 16.605469 C 82.101562 16.746094 81.785156 16.847656 81.457031 16.90625 L 81.457031 26.199219 C 81.457031 26.402344 81.417969 26.597656 81.339844 26.785156 C 81.261719 26.972656 81.148438 27.136719 81.007812 27.28125 C 80.863281 27.425781 80.699219 27.535156 80.511719 27.613281 C 80.324219 27.691406 80.128906 27.730469 79.925781 27.730469 Z M 71.601562 32.980469 L 88.933594 32.980469 C 89.136719 32.980469 89.332031 32.941406 89.519531 32.863281 C 89.707031 32.785156 89.871094 32.675781 90.015625 32.53125 C 90.15625 32.390625 90.269531 32.222656 90.347656 32.039062 C 90.425781 31.851562 90.464844 31.65625 90.464844 31.453125 L 90.464844 22.160156 C 90.792969 22.097656 91.113281 22 91.417969 21.859375 C 91.722656 21.71875 92.003906 21.542969 92.265625 21.335938 C 92.53125 21.125 92.761719 20.886719 92.964844 20.617188 C 93.167969 20.351562 93.335938 20.0625 93.464844 19.753906 C 93.597656 19.445312 93.6875 19.125 93.742188 18.792969 C 93.792969 18.460938 93.804688 18.128906 93.773438 17.796875 C 93.742188 17.460938 93.671875 17.136719 93.5625 16.820312 C 93.449219 16.503906 93.300781 16.203125 93.117188 15.925781 C 92.929688 15.644531 92.714844 15.390625 92.464844 15.164062 C 92.21875 14.9375 91.945312 14.746094 91.652344 14.585938 C 91.355469 14.429688 91.046875 14.308594 90.71875 14.226562 C 90.394531 14.144531 90.0625 14.101562 89.726562 14.101562 C 89.394531 14.101562 89.0625 14.144531 88.738281 14.226562 C 88.410156 14.308594 88.101562 14.429688 87.804688 14.585938 C 87.507812 14.746094 87.238281 14.9375 86.988281 15.164062 C 86.742188 15.390625 86.527344 15.644531 86.339844 15.925781 C 86.15625 16.203125 86.007812 16.503906 85.894531 16.820312 C 85.785156 17.136719 85.714844 17.460938 85.683594 17.796875 C 85.652344 18.128906 85.664062 18.460938 85.714844 18.792969 C 85.769531 19.125 85.859375 19.445312 85.992188 19.753906 C 86.121094 20.0625 86.289062 20.351562 86.492188 20.617188 C 86.695312 20.886719 86.925781 21.125 87.1875 21.335938 C 87.449219 21.542969 87.734375 21.71875 88.039062 21.859375 C 88.34375 22 88.664062 22.097656 88.992188 22.160156 L 88.992188 31.453125 C 88.992188 31.492188 88.972656 31.511719 88.933594 31.511719 L 71.601562 31.511719 Z M 70.128906 36.761719 L 70.128906 49.113281 C 70.128906 49.316406 70.058594 49.488281 69.914062 49.632812 C 69.769531 49.773438 69.597656 49.847656 69.394531 49.847656 C 68.582031 49.847656 67.78125 49.769531 66.984375 49.609375 C 66.191406 49.453125 65.417969 49.21875 64.667969 48.90625 C 63.921875 48.597656 63.207031 48.214844 62.535156 47.765625 C 61.859375 47.316406 61.238281 46.804688 60.664062 46.230469 C 60.089844 45.65625 59.578125 45.035156 59.128906 44.359375 C 58.675781 43.683594 58.296875 42.972656 57.988281 42.222656 C 57.675781 41.476562 57.441406 40.703125 57.285156 39.90625 C 57.125 39.113281 57.046875 38.308594 57.046875 37.5 C 57.046875 36.6875 57.125 35.886719 57.285156 35.089844 C 57.441406 34.292969 57.675781 33.523438 57.988281 32.773438 C 58.296875 32.023438 58.675781 31.3125 59.128906 30.636719 C 59.578125 29.964844 60.089844 29.339844 60.664062 28.765625 C 61.238281 28.195312 61.859375 27.683594 62.535156 27.230469 C 63.207031 26.78125 63.921875 26.402344 64.667969 26.089844 C 65.417969 25.78125 66.191406 25.546875 66.984375 25.386719 C 67.78125 25.230469 68.582031 25.152344 69.394531 25.152344 C 69.597656 25.152344 69.769531 25.222656 69.914062 25.367188 C 70.058594 25.507812 70.128906 25.683594 70.128906 25.886719 Z M 96.699219 33.4375 C 96.226562 33.4375 95.765625 33.519531 95.316406 33.679688 C 94.871094 33.84375 94.464844 34.074219 94.101562 34.378906 C 93.738281 34.683594 93.433594 35.039062 93.195312 35.449219 C 92.957031 35.859375 92.792969 36.296875 92.707031 36.761719 L 71.601562 36.761719 L 71.601562 38.234375 L 92.707031 38.234375 C 92.800781 38.742188 92.984375 39.214844 93.257812 39.65625 C 93.53125 40.09375 93.878906 40.464844 94.296875 40.773438 C 94.710938 41.078125 95.171875 41.296875 95.671875 41.425781 C 96.171875 41.558594 96.679688 41.59375 97.191406 41.53125 C 97.707031 41.46875 98.191406 41.3125 98.644531 41.066406 C 99.097656 40.816406 99.492188 40.496094 99.820312 40.097656 C 100.152344 39.699219 100.398438 39.253906 100.558594 38.761719 C 100.71875 38.273438 100.785156 37.769531 100.753906 37.25 C 100.722656 36.734375 100.597656 36.242188 100.378906 35.773438 C 100.15625 35.304688 99.859375 34.894531 99.484375 34.539062 C 99.105469 34.1875 98.675781 33.914062 98.195312 33.722656 C 97.714844 33.53125 97.214844 33.4375 96.699219 33.4375 Z M 39.75 44.011719 L 44.636719 44.613281 C 45.171875 46.484375 45.914062 48.273438 46.859375 49.980469 L 43.828125 53.855469 C 43.679688 54.046875 43.570312 54.253906 43.5 54.484375 C 43.429688 54.710938 43.402344 54.945312 43.417969 55.183594 C 43.429688 55.421875 43.488281 55.652344 43.585938 55.867188 C 43.683594 56.085938 43.816406 56.28125 43.984375 56.449219 L 50.445312 62.90625 C 50.613281 63.078125 50.804688 63.210938 51.023438 63.308594 C 51.242188 63.40625 51.472656 63.464844 51.710938 63.476562 C 51.949219 63.492188 52.183594 63.464844 52.410156 63.394531 C 52.640625 63.324219 52.847656 63.214844 53.035156 63.066406 L 56.917969 60.035156 C 58.621094 60.980469 60.410156 61.722656 62.285156 62.257812 L 62.886719 67.144531 C 62.914062 67.382812 62.984375 67.605469 63.097656 67.816406 C 63.207031 68.03125 63.351562 68.214844 63.53125 68.371094 C 63.710938 68.53125 63.910156 68.652344 64.136719 68.738281 C 64.359375 68.824219 64.589844 68.867188 64.828125 68.867188 L 69.394531 68.867188 C 69.597656 68.867188 69.769531 68.792969 69.914062 68.652344 C 70.058594 68.507812 70.128906 68.335938 70.128906 68.132812 L 70.128906 52.296875 C 70.128906 52.09375 70.058594 51.921875 69.914062 51.777344 C 69.769531 51.632812 69.597656 51.5625 69.394531 51.5625 C 68.472656 51.5625 67.558594 51.472656 66.652344 51.292969 C 65.746094 51.113281 64.867188 50.84375 64.011719 50.492188 C 63.160156 50.136719 62.347656 49.703125 61.582031 49.191406 C 60.8125 48.679688 60.105469 48.097656 59.449219 47.441406 C 58.796875 46.789062 58.214844 46.078125 57.703125 45.3125 C 57.1875 44.542969 56.753906 43.734375 56.402344 42.878906 C 56.050781 42.027344 55.78125 41.148438 55.601562 40.242188 C 55.421875 39.335938 55.332031 38.421875 55.332031 37.5 C 55.332031 36.574219 55.421875 35.660156 55.601562 34.753906 C 55.78125 33.851562 56.050781 32.96875 56.402344 32.117188 C 56.753906 31.265625 57.1875 30.453125 57.703125 29.6875 C 58.214844 28.917969 58.796875 28.207031 59.449219 27.554688 C 60.105469 26.902344 60.8125 26.320312 61.582031 25.804688 C 62.347656 25.292969 63.160156 24.859375 64.011719 24.507812 C 64.867188 24.152344 65.746094 23.886719 66.652344 23.707031 C 67.558594 23.527344 68.472656 23.4375 69.394531 23.4375 C 69.597656 23.4375 69.769531 23.363281 69.914062 23.21875 C 70.058594 23.078125 70.128906 22.902344 70.128906 22.699219 L 70.128906 6.867188 C 70.128906 6.664062 70.058594 6.492188 69.914062 6.347656 C 69.769531 6.203125 69.597656 6.132812 69.394531 6.132812 L 64.828125 6.132812 C 64.589844 6.132812 64.359375 6.175781 64.132812 6.257812 C 63.910156 6.34375 63.707031 6.464844 63.53125 6.625 C 63.351562 6.78125 63.207031 6.96875 63.09375 7.179688 C 62.984375 7.390625 62.914062 7.617188 62.882812 7.851562 L 62.285156 12.738281 C 60.410156 13.277344 58.621094 14.015625 56.917969 14.960938 L 53.035156 11.929688 C 52.847656 11.785156 52.640625 11.675781 52.410156 11.605469 C 52.183594 11.535156 51.949219 11.507812 51.710938 11.519531 C 51.472656 11.535156 51.242188 11.589844 51.023438 11.691406 C 50.804688 11.789062 50.613281 11.921875 50.445312 12.089844 L 43.984375 18.546875 C 43.816406 18.71875 43.683594 18.910156 43.585938 19.128906 C 43.488281 19.347656 43.429688 19.574219 43.417969 19.8125 C 43.402344 20.054688 43.429688 20.285156 43.5 20.515625 C 43.570312 20.742188 43.679688 20.953125 43.828125 21.140625 L 46.859375 25.023438 C 45.914062 26.726562 45.171875 28.515625 44.636719 30.390625 L 39.75 30.988281 C 39.511719 31.019531 39.289062 31.089844 39.074219 31.199219 C 38.863281 31.3125 38.679688 31.457031 38.519531 31.636719 C 38.363281 31.816406 38.242188 32.015625 38.15625 32.238281 C 38.070312 32.460938 38.027344 32.695312 38.027344 32.933594 L 38.027344 42.0625 C 38.027344 42.304688 38.070312 42.535156 38.15625 42.757812 C 38.238281 42.984375 38.359375 43.183594 38.519531 43.363281 C 38.679688 43.542969 38.863281 43.6875 39.074219 43.800781 C 39.285156 43.910156 39.511719 43.980469 39.75 44.011719 Z M 39.75 44.011719 " fill-opacity="1" fill-rule="evenodd"/></g><g fill="#ffffff" fill-opacity="1"><g transform="translate(103.170072, 59.99757)"><g><path d="M 21.3125 -8.5 C 21.3125 -7.164062 21.070312 -5.9375 20.59375 -4.8125 C 20.113281 -3.6875 19.445312 -2.707031 18.59375 -1.875 C 17.738281 -1.039062 16.71875 -0.382812 15.53125 0.09375 C 14.34375 0.570312 13.039062 0.8125 11.625 0.8125 C 10.25 0.8125 8.957031 0.570312 7.75 0.09375 C 6.539062 -0.382812 5.488281 -1.039062 4.59375 -1.875 C 3.695312 -2.707031 3 -3.6875 2.5 -4.8125 C 2 -5.9375 1.75 -7.164062 1.75 -8.5 L 1.75 -41.625 L 9.8125 -41.625 L 9.8125 -8.3125 C 9.8125 -7.726562 9.988281 -7.28125 10.34375 -6.96875 C 10.695312 -6.65625 11.125 -6.5 11.625 -6.5 C 12.207031 -6.5 12.675781 -6.65625 13.03125 -6.96875 C 13.382812 -7.28125 13.5625 -7.726562 13.5625 -8.3125 L 13.5625 -41.625 L 21.3125 -41.625 Z M 21.3125 -8.5 "/></g></g></g><g fill="#ffffff" fill-opacity="1"><g transform="translate(124.293541, 59.99757)"><g><path d="M 21.125 -8.8125 C 21.125 -7.394531 20.914062 -6.09375 20.5 -4.90625 C 20.082031 -3.71875 19.46875 -2.707031 18.65625 -1.875 C 17.84375 -1.039062 16.863281 -0.382812 15.71875 0.09375 C 14.570312 0.570312 13.289062 0.8125 11.875 0.8125 C 10.414062 0.8125 9.050781 0.570312 7.78125 0.09375 C 6.507812 -0.382812 5.40625 -1.0625 4.46875 -1.9375 C 3.53125 -2.8125 2.789062 -3.863281 2.25 -5.09375 C 1.707031 -6.320312 1.4375 -7.6875 1.4375 -9.1875 L 1.4375 -32.4375 C 1.4375 -33.9375 1.707031 -35.300781 2.25 -36.53125 C 2.789062 -37.757812 3.53125 -38.8125 4.46875 -39.6875 C 5.40625 -40.5625 6.507812 -41.238281 7.78125 -41.71875 C 9.050781 -42.195312 10.414062 -42.4375 11.875 -42.4375 C 13.289062 -42.4375 14.570312 -42.195312 15.71875 -41.71875 C 16.863281 -41.238281 17.84375 -40.582031 18.65625 -39.75 C 19.46875 -38.914062 20.082031 -37.90625 20.5 -36.71875 C 20.914062 -35.53125 21.125 -34.226562 21.125 -32.8125 L 21.125 -26.5 L 14.125 -26.5 L 14.125 -32.9375 C 14.125 -33.5625 13.945312 -34.082031 13.59375 -34.5 C 13.238281 -34.914062 12.664062 -35.125 11.875 -35.125 C 11.125 -35.125 10.5625 -34.914062 10.1875 -34.5 C 9.8125 -34.082031 9.625 -33.5625 9.625 -32.9375 L 9.625 -8.6875 C 9.625 -8.0625 9.8125 -7.539062 10.1875 -7.125 C 10.5625 -6.707031 11.125 -6.5 11.875 -6.5 C 12.664062 -6.5 13.238281 -6.707031 13.59375 -7.125 C 13.945312 -7.539062 14.125 -8.0625 14.125 -8.6875 L 14.125 -15.1875 L 21.125 -15.1875 Z M 21.125 -8.8125 "/></g></g></g><g fill="#ffffff" fill-opacity="1"><g transform="translate(144.667072, 59.99757)"><g><path d="M 14.4375 0 L 14.4375 -16.5625 L 9.875 -16.5625 L 9.875 0 L 1.8125 0 L 1.8125 -41.625 L 9.875 -41.625 L 9.875 -23.9375 L 14.4375 -23.9375 L 14.4375 -41.625 L 22.4375 -41.625 L 22.4375 0 Z M 14.4375 0 "/></g></g></g><g fill="#ffffff" fill-opacity="1"><g transform="translate(167.040454, 59.99757)"><g><path d="M 1.8125 0 L 1.8125 -41.625 L 18.75 -41.625 L 18.75 -34.5625 L 9.8125 -34.5625 L 9.8125 -24.625 L 15.6875 -24.625 L 15.6875 -18.125 L 9.8125 -18.125 L 9.8125 -7.3125 L 18.75 -7.3125 L 18.75 0 Z M 1.8125 0 "/></g></g></g></svg>